<svg width="13" height="13" viewBox="0 0 13 13" fill="none" xmlns="http://www.w3.org/2000/svg">
<circle cx="6.5" cy="6.5" r="6.5" fill="white"/>
<g clip-path="url(#clip0_1_144)">
<path d="M6.125 7.25H6.875C7.07391 7.25 7.26468 7.17098 7.40533 7.03033C7.54598 6.88968 7.625 6.69891 7.625 6.5C7.625 6.30109 7.54598 6.11032 7.40533 5.96967C7.26468 5.82902 7.07391 5.75 6.875 5.75H5.75C5.525 5.75 5.3375 5.825 5.225 5.975L3.125 8M4.625 9.5L5.225 8.975C5.3375 8.825 5.525 8.75 5.75 8.75H7.25C7.6625 8.75 8.0375 8.6 8.3 8.3L10.025 6.65C10.1697 6.51325 10.2542 6.32461 10.2598 6.12559C10.2654 5.92657 10.1918 5.73346 10.055 5.58875C9.91825 5.44404 9.72961 5.35958 9.53059 5.35396C9.33156 5.34833 9.13846 5.422 8.99375 5.55875L7.41875 7.02125M2.75 7.625L5 9.875M9.3125 5.1875C9.575 4.925 9.875 4.5875 9.875 4.175C9.90121 3.94585 9.84927 3.71456 9.7276 3.51861C9.60593 3.32267 9.42166 3.17355 9.20465 3.09543C8.98763 3.0173 8.7506 3.01475 8.53195 3.08818C8.31331 3.16161 8.12586 3.30672 8 3.5C7.86613 3.32172 7.67864 3.19105 7.46504 3.12717C7.25145 3.06329 7.023 3.06957 6.81323 3.14509C6.60347 3.2206 6.42343 3.36138 6.29956 3.54674C6.17569 3.73211 6.11451 3.9523 6.125 4.175C6.125 4.625 6.425 4.925 6.6875 5.225L8 6.5L9.3125 5.1875Z" stroke="#1A6D73" stroke-width="0.5" stroke-linecap="round" stroke-linejoin="round"/>
</g>
<defs>
<clipPath id="clip0_1_144">
<rect width="9" height="9" fill="white" transform="translate(2 2)"/>
</clipPath>
</defs>
</svg>
