<svg width="14" height="13" viewBox="0 0 14 13" fill="none" xmlns="http://www.w3.org/2000/svg">
<g id="Group 5">
<circle id="Ellipse 1" cx="7.16666" cy="6.5" r="6.5" fill="white"/>
<g id="lucide/briefcase-business">
<path id="Vector" d="M7.5 6.5H7.50375M9 4.25V3.5C9 3.30109 8.92098 3.11032 8.78033 2.96967C8.63968 2.82902 8.44891 2.75 8.25 2.75H6.75C6.55109 2.75 6.36032 2.82902 6.21967 2.96967C6.07902 3.11032 6 3.30109 6 3.5V4.25M11.25 6.875C10.1373 7.60962 8.83333 8.00124 7.5 8.00124C6.16667 8.00124 4.8627 7.60962 3.75 6.875M4.5 4.25H10.5C10.9142 4.25 11.25 4.58579 11.25 5V8.75C11.25 9.16421 10.9142 9.5 10.5 9.5H4.5C4.08579 9.5 3.75 9.16421 3.75 8.75V5C3.75 4.58579 4.08579 4.25 4.5 4.25Z" stroke="#1A6D73" stroke-width="0.5" stroke-linecap="round" stroke-linejoin="round"/>
</g>
</g>
</svg>
