<svg width="13" height="13" viewBox="0 0 13 13" fill="none" xmlns="http://www.w3.org/2000/svg">
<g id="Group 5">
<circle id="Ellipse 1" cx="6.5" cy="6.5" r="6.5" fill="white"/>
<g id="lucide/building-2" clip-path="url(#clip0_1_126)">
<path id="Vector" d="M4.25 10.25V3.5C4.25 3.30109 4.32902 3.11032 4.46967 2.96967C4.61032 2.82902 4.80109 2.75 5 2.75H8C8.19891 2.75 8.38968 2.82902 8.53033 2.96967C8.67098 3.11032 8.75 3.30109 8.75 3.5V10.25M4.25 10.25H8.75M4.25 10.25H3.5C3.30109 10.25 3.11032 10.171 2.96967 10.0303C2.82902 9.88968 2.75 9.69891 2.75 9.5V7.25C2.75 7.05109 2.82902 6.86032 2.96967 6.71967C3.11032 6.57902 3.30109 6.5 3.5 6.5H4.25M8.75 10.25H9.5C9.69891 10.25 9.88968 10.171 10.0303 10.0303C10.171 9.88968 10.25 9.69891 10.25 9.5V6.125C10.25 5.92609 10.171 5.73532 10.0303 5.59467C9.88968 5.45402 9.69891 5.375 9.5 5.375H8.75M5.75 4.25H7.25M5.75 5.75H7.25M5.75 7.25H7.25M5.75 8.75H7.25" stroke="#1A6D73" stroke-width="0.5" stroke-linecap="round" stroke-linejoin="round"/>
</g>
</g>
<defs>
<clipPath id="clip0_1_126">
<rect width="9" height="9" fill="white" transform="translate(2 2)"/>
</clipPath>
</defs>
</svg>
